<svg xmlns="http://www.w3.org/2000/svg" viewBox="0 0 512 512" width="512" height="512">
  <defs>
    <linearGradient id="grad" x1="0%" y1="0%" x2="100%" y2="100%">
      <stop offset="0%" style="stop-color:#2563eb;stop-opacity:1" />
      <stop offset="100%" style="stop-color:#4f46e5;stop-opacity:1" />
    </linearGradient>
  </defs>
  <!-- Background -->
  <rect width="512" height="512" rx="128" fill="url(#grad)" />
  <!-- Wallet Icon -->
  <g transform="translate(128, 128) scale(10)" stroke="none" fill="#ffffff">
    <path d="M19 5H5c-1.1 0-2 .9-2 2v10c0 1.1.9 2 2 2h14c1.1 0 2-.9 2-2V7c0-1.1-.9-2-2-2zm0 4h-6c-1.1 0-2 .9-2 2v2c0 1.1.9 2 2 2h6v2H5V7h14v2zm-6 2h6v2h-6v-2z"/>
  </g>
</svg>
